<svg xmlns="http://www.w3.org/2000/svg" version="1.1" xmlns:xlink="http://www.w3.org/1999/xlink" xmlns:svgjs="http://svgjs.dev/svgjs" width="2000" height="474" viewBox="0 0 2000 474"><g transform="matrix(1,0,0,1,-1.2121212121212466,-0.14896142631698694)"><svg viewBox="0 0 396 94" data-background-color="#ffffff" preserveAspectRatio="xMidYMid meet" height="474" width="2000" xmlns="http://www.w3.org/2000/svg" xmlns:xlink="http://www.w3.org/1999/xlink"><defs></defs><g id="tight-bounds" transform="matrix(1,0,0,1,0.2400000000000091,0.029540873573409954)"><svg viewBox="0 0 395.52 93.9409182528532" height="93.9409182528532" width="395.52"><g><svg viewBox="0 0 395.52 93.9409182528532" height="93.9409182528532" width="395.52"><g transform="matrix(1,0,0,1,0,58.0592562029917)"><svg viewBox="0 0 395.52 35.8816620498615" height="35.8816620498615" width="395.52"><g><svg viewBox="0 0 395.52 35.8816620498615" height="35.8816620498615" width="395.52"><g><svg viewBox="0 0 395.52 35.8816620498615" height="35.8816620498615" width="395.52"><g transform="matrix(1,0,0,1,0,0)"><svg width="395.52" viewBox="-12.5 -32 360.98 32.75" height="35.8816620498615" data-palette-color="#4b4a4a"><path d="M10.95-19.4L10.95-19.4-10.25-21.65 11.15-21.65Q11.05-20.8 10.95-19.4ZM10.75-7.25L9.95-5.05-10.8-7.25 10.75-7.25ZM9.05-2.4L8.3-0.2-12.5-2.4 9.05-2.4ZM-8.9-26.45L12.65-26.45 11.75-24.25-8.9-26.45ZM-4.25-31.25L17.3-31.25 17.3-31.2Q15.8-30.4 14.7-29.2L14.7-29.2-4.25-31.25ZM-6.8-16.85L11-16.85Q11.2-15.55 11.4-14.9L11.4-14.9-6.8-16.85ZM16.45-10.45L16.45-10.45 16.4-10.2 0.5-12.05 13.35-12.05Q14.75-10.85 16.45-10.45ZM22.6-18.8L24.5-18.8Q26.1-18.8 26.78-19.18 27.45-19.55 27.7-20.9L27.7-20.9 28.35-24.45 26.4-24.45Q24.8-24.45 24.1-24.08 23.4-23.7 23.2-22.35L23.2-22.35 22.6-18.8ZM26.05-11.4L23.65-11.4Q16.75-11.4 14.6-13.13 12.45-14.85 12.45-18.35L12.45-18.35Q12.45-25.15 16.28-28.58 20.1-32 27.25-32L27.25-32Q32.85-32 35.27-29.63 37.7-27.25 37.7-22.3L37.7-22.3Q37.7-19.55 37-15.65L37-15.65Q35.45-7.05 32.08-3.15 28.7 0.75 21.88 0.75 15.05 0.75 10-0.55L10-0.55 12.85-8.8Q17.15-7.65 20.13-7.65 23.1-7.65 25.45-7.95L25.45-7.95 26.05-11.4ZM62.3-2.4L61.9-0.15 40.7-2.4 62.3-2.4ZM48.45-7.25L48.05-5 26.85-7.25 48.45-7.25ZM48.9-9.8L27.85-12.05 49.45-12.05 49.2-11.6 48.9-9.8ZM52.05-16.85L50.85-14.65 30.5-16.85 52.05-16.85ZM59.85-31.25L58.7-29.05 38.35-31.25 59.85-31.25ZM54.65-21.65L53.45-19.5 33.15-21.65 54.65-21.65ZM57.25-26.45L56.1-24.3 35.8-26.45 57.25-26.45ZM72.9 0L63.4 0 64.25-5 49.6-5 50.7-11.25 61.55-31.25 78.4-31.25 75.25-13.6 78.35-13.6 76.85-5 73.75-5 72.9 0ZM67.55-23.75L67.05-23.75 61.05-13.6 65.75-13.6 67.55-23.75ZM102.9-2.4L102.5-0.15 81.3-2.4 102.9-2.4ZM89.05-7.25L88.65-5 67.45-7.25 89.05-7.25ZM89.5-9.8L68.45-12.05 90.05-12.05 89.8-11.6 89.5-9.8ZM92.65-16.85L91.45-14.65 71.1-16.85 92.65-16.85ZM100.45-31.25L99.3-29.05 78.95-31.25 100.45-31.25ZM95.25-21.65L94.05-19.5 73.75-21.65 95.25-21.65ZM97.85-26.45L96.7-24.3 76.4-26.45 97.85-26.45ZM113.5 0L104 0 104.85-5 90.2-5 91.3-11.25 102.15-31.25 119-31.25 115.84-13.6 118.95-13.6 117.45-5 114.34-5 113.5 0ZM108.15-23.75L107.65-23.75 101.65-13.6 106.35-13.6 108.15-23.75ZM168.79-31.25L167.34-23.25 160.44-23.25 156.39 0 146.89 0 150.94-23.25 144.09-23.25 145.54-31.25 168.79-31.25ZM145.74-2.4L145.34-0.15 124.14-2.4 145.74-2.4ZM147.44-12.05L147.04-9.8 125.84-12.05 147.44-12.05ZM148.29-16.85L147.89-14.6 126.69-16.85 148.29-16.85ZM149.14-21.65L148.74-19.4 127.54-21.65 149.14-21.65ZM146.59-7.25L146.19-5 124.99-7.25 146.59-7.25ZM143.09-26.45L142.74-24.2 121.54-26.45 143.09-26.45ZM143.94-31.25L143.54-29 122.39-31.25 143.94-31.25ZM182.59-31.25L197.59-31.25Q206.14-31.25 206.14-23.6L206.14-23.6Q206.14-20.45 205.19-17.6L205.19-17.6Q203.44-12.2 199.69-10.4L199.69-10.4 202.99 0 192.54 0 190.24-9.3 188.19-9.3 186.59 0 177.09 0 182.59-31.25ZM189.54-17L191.74-17Q193.44-17 194.31-17.38 195.19-17.75 195.51-19.53 195.84-21.3 195.84-21.7L195.84-21.7Q195.84-22.7 195.06-22.98 194.29-23.25 192.54-23.25L192.54-23.25 190.64-23.25 189.54-17ZM175.99-2.4L175.59-0.15 154.39-2.4 175.99-2.4ZM177.69-12.05L177.29-9.8 156.09-12.05 177.69-12.05ZM179.34-21.65L178.94-19.4 157.79-21.65 179.34-21.65ZM180.19-26.45L179.79-24.2 158.64-26.45 180.19-26.45ZM176.84-7.25L176.44-5 155.24-7.25 176.84-7.25ZM181.04-31.25L180.64-29 159.49-31.25 181.04-31.25ZM178.49-16.85L178.09-14.6 156.94-16.85 178.49-16.85ZM228.19-4.95L226.24 0 216.24 0 229.39-31.25 244.09-31.25 246.29 0 236.24 0 236.04-4.95 228.19-4.95ZM231.29-12.9L235.29-12.9 235.29-21.65 234.79-21.65 231.29-12.9ZM215.59-2.4L214.64-0.2 194.14-2.4 215.59-2.4ZM217.64-7.25L216.69-5.05 196.19-7.25 217.64-7.25ZM219.64-12.05L218.74-9.85 198.24-12.05 219.64-12.05ZM221.69-16.85L220.74-14.65 200.29-16.85 221.69-16.85ZM223.69-21.65L222.79-19.45 202.34-21.65 223.69-21.65ZM227.74-31.25L226.84-29.1 206.44-31.25 227.74-31.25ZM225.69-26.45L224.79-24.3 204.39-26.45 225.69-26.45ZM206.44-31.25L226.84-29.1 227.74-31.25 206.44-31.25ZM280.33-19.05L278.98-11.6 270.88-11.6 268.88 0 259.38 0 264.88-31.25 284.38-31.25 281.73-23.25 272.93-23.25 272.23-19.05 280.33-19.05ZM258.28-2.4L257.88-0.15 236.68-2.4 258.28-2.4ZM259.98-12.05L259.58-9.8 238.38-12.05 259.98-12.05ZM260.83-16.85L260.43-14.6 239.23-16.85 260.83-16.85ZM261.68-21.65L261.28-19.4 240.08-21.65 261.68-21.65ZM262.48-26.45L262.13-24.2 240.93-26.45 262.48-26.45ZM259.13-7.25L258.73-5 237.53-7.25 259.13-7.25ZM263.33-31.25L262.93-29 241.78-31.25 263.33-31.25ZM302.18 0L292.68 0 298.18-31.25 307.68-31.25 302.18 0ZM291.58-2.4L291.18-0.15 269.98-2.4 291.58-2.4ZM293.28-12.05L292.88-9.8 271.68-12.05 293.28-12.05ZM294.13-16.85L293.73-14.6 272.53-16.85 294.13-16.85ZM294.98-21.65L294.58-19.4 273.38-21.65 294.98-21.65ZM295.78-26.45L295.43-24.2 274.23-26.45 295.78-26.45ZM292.43-7.25L292.03-5 270.83-7.25 292.43-7.25ZM296.63-31.25L296.23-29 275.08-31.25 296.63-31.25ZM330.08-12.65L330.08-12.65 330.13-13.6 329.73-13.6 327.38 0 317.88 0 323.38-31.25 332.88-31.25 330.63-18.5 331.03-18.5Q331.43-20.1 331.93-20.9L331.93-20.9 338.23-31.25 348.48-31.25 338.68-15.9 343.23 0 332.98 0 330.23-11.2Q330.08-11.7 330.08-12.65ZM316.78-2.4L316.38-0.15 295.18-2.4 316.78-2.4ZM318.48-12.05L318.08-9.8 296.88-12.05 318.48-12.05ZM319.33-16.85L318.93-14.6 297.73-16.85 319.33-16.85ZM320.18-21.65L319.78-19.4 298.58-21.65 320.18-21.65ZM320.98-26.45L320.63-24.2 299.43-26.45 320.98-26.45ZM317.63-7.25L317.23-5 296.03-7.25 317.63-7.25ZM321.83-31.25L321.43-29 300.28-31.25 321.83-31.25Z" opacity="1" transform="matrix(1,0,0,1,0,0)" fill="#4b4a4a" class="undefined-text-0" data-fill-palette-color="primary" id="text-0"></path></svg></g></svg></g></svg></g></svg></g><g transform="matrix(1,0,0,1,164.4161447511543,0)"><svg viewBox="0 0 66.68771049769141 49.588456952908594" height="49.588456952908594" width="66.68771049769141"><g><svg xmlns="http://www.w3.org/2000/svg" xmlns:xlink="http://www.w3.org/1999/xlink" version="1.1" x="8" y="0" viewBox="9.507114742416508 10.261 71.06619743579847 69.525" enable-background="new 0 0 90 90" xml:space="preserve" height="49.588456952908594" width="50.68771049769141" class="icon-icon-0" data-fill-palette-color="accent" id="icon-0"><path fill-rule="evenodd" clip-rule="evenodd" d="M35.217 59.015h19.65c1.188 0 2.156 0.525 2.438 1.719l0.756 3.246c0.535 2.468-1.85 3.906-4.355 3.906H36.377c-2.51 0-4.895-1.438-4.359-3.906l0.762-3.246C33.061 59.541 34.023 59.015 35.217 59.015zM68.236 54.786c0.906 0.027 1.703 0.667 1.959 1.907 0.334 1.646 0.725 4.901-1.109 5.974-1.51 0.879-4.678 1.51-6.369 1.917-1.625 0.391-2.031-1.136-1.465-3.417 1.053-4.235 3.434-5.13 6.053-6.203C67.617 54.833 67.936 54.776 68.236 54.786zM21.846 54.786c0.303-0.01 0.621 0.047 0.934 0.177 2.619 1.073 5 1.968 6.051 6.203 0.568 2.281 0.156 3.808-1.463 3.417-1.693-0.407-4.859-1.038-6.369-1.917-1.834-1.072-1.443-4.328-1.109-5.974C20.139 55.453 20.936 54.813 21.846 54.786zM23.361 19.912h43.428c0.984 7.364 1.541 15.046 1.541 21.369H21.82C21.82 34.958 22.377 27.276 23.361 19.912zM26.936 10.261c-3.949 0-6.303 3.271-7.125 7.129-1.016 4.751-1.797 13.896-2.313 22.317h-1.824l0.313-6.421c0.037-0.677-0.473-1.219-1.15-1.219-2.078 0-4.822-0.197-5 3.369l-0.328 6.631c-0.037 0.672 0.475 1.213 1.15 1.213h6.631c-0.318 5.891-0.49 11.011-0.49 13.339v12.938c0 2.822 0.516 4.073 3.037 5.532v2.744c0 1.084 0.869 1.953 1.953 1.953h5.547c1.084 0 1.979-0.869 1.959-1.953v-2.744h31.494v2.744c-0.021 1.084 0.875 1.953 1.959 1.953h5.547c1.082 0 1.953-0.869 1.953-1.953v-2.744c2.52-1.459 3.035-2.709 3.035-5.532V56.62c0-2.328-0.172-7.448-0.488-13.339h6.625c0.682 0 1.191-0.542 1.15-1.213l-0.322-6.631c-0.178-3.566-2.922-3.369-5-3.369-0.684 0-1.188 0.542-1.156 1.219l0.316 6.421h-1.822c-0.516-8.421-1.297-17.566-2.313-22.317-0.822-3.858-3.178-7.129-7.125-7.129H26.936z" fill="#f2911d" data-fill-palette-color="accent"></path></svg><g></g></g></svg></g><g><rect width="164.4161447511543" height="3.235845313531745" y="45.352611639376846" x="231.10385524884572" fill="#f2911d" data-fill-palette-color="accent"></rect><rect width="164.4161447511543" height="3.235845313531745" y="45.352611639376846" x="0" fill="#f2911d" data-fill-palette-color="accent"></rect><rect width="164.4161447511543" height="3.235845313531745" y="38.88092101231336" x="231.10385524884572" fill="#f2911d" data-fill-palette-color="accent"></rect><rect width="164.4161447511543" height="3.235845313531745" y="38.88092101231336" x="0" fill="#f2911d" data-fill-palette-color="accent"></rect></g></svg></g></svg><rect width="395.52" height="93.9409182528532" fill="none" stroke="none" visibility="hidden"></rect></g></svg></g></svg>